<?xml version="1.0" encoding="UTF-8"?>
<svg width="10px" height="30px" viewBox="0 0 10 30" version="1.1" xmlns="http://www.w3.org/2000/svg" xmlns:xlink="http://www.w3.org/1999/xlink">
    <!-- Generator: Sketch 53.2 (72643) - https://sketchapp.com -->
    <title>binarnia_icon</title>
    <desc>Created with Sketch.</desc>
    <g id="Page-1" stroke="none" stroke-width="1" fill="none" fill-rule="evenodd">
        <g id="1920" transform="translate(-390.000000, -1683.000000)" fill="#757575" fill-rule="nonzero">
            <g id="Main-Navigation" transform="translate(0.000000, 1651.000000)">
                <g id="Items" transform="translate(390.000000, 32.000000)">
                    <g id="Item-1">
                        <path d="M2.8573076e-06,6.04598429 L2.8573076e-06,8.46455014 C-0.000392659535,8.52697406 0.0403000787,8.58433137 0.105383908,8.61308706 C0.170467738,8.64184275 0.248984556,8.63715525 0.308717111,8.60094794 L6.20555013,5.08121937 C6.30132282,5.023914 6.42667679,5.01696122 6.53037396,5.06320296 C6.63407113,5.10944471 6.69873324,5.20113147 6.69792982,5.30078655 L6.69792982,22.8262404 C6.69840044,23.0433473 6.57441775,23.2469952 6.36576892,23.3718316 L3.79836051,24.9021483 C3.70380537,24.961759 3.57766949,24.9704301 3.47310433,24.9245078 C3.36853917,24.8785854 3.30372788,24.7860553 3.30598081,24.6859079 L3.30598081,11.20914 C3.30637633,11.1467161 3.26568359,11.0893588 3.20059976,11.0606031 C3.13551593,11.0318474 3.05699911,11.0365349 2.99726656,11.0727422 L0.168037198,12.7594174 C0.0629718756,12.8214675 0.000213287191,12.9233531 2.8573076e-06,13.032213 L2.8573076e-06,29.3334134 C-0.000536598731,29.5819534 0.161685163,29.8100287 0.420637607,29.9248036 C0.67959005,30.0395786 0.992095482,30.0219158 1.2309521,29.8790046 L9.33567819,25.0318926 C9.74959721,24.7842506 9.99713417,24.3813774 10,23.9506905 L10,0.663261381 C9.9990826,0.415319291 9.83629885,0.188378724 9.57763301,0.074429846 C9.31896716,-0.0395190319 9.00733285,-0.0215716793 8.76905076,0.12099696 L0.664324668,4.95480189 C0.247027001,5.20447459 -0.000938381554,5.61177035 2.8573076e-06,6.04598429 Z" id="binarnia_icon"></path>
                    </g>
                </g>
            </g>
        </g>
    </g>
</svg>