<?xml version="1.0" encoding="UTF-8"?>
<svg width="29px" height="30px" viewBox="0 0 29 30" version="1.1" xmlns="http://www.w3.org/2000/svg" xmlns:xlink="http://www.w3.org/1999/xlink">
    <!-- Generator: Sketch 53.2 (72643) - https://sketchapp.com -->
    <title>craft_icon</title>
    <desc>Created with Sketch.</desc>
    <g id="Page-1" stroke="none" stroke-width="1" fill="none" fill-rule="evenodd">
        <g id="1920" transform="translate(-707.000000, -1686.000000)" fill="#757575" fill-rule="nonzero">
            <g id="Main-Navigation" transform="translate(0.000000, 1651.000000)">
                <g id="Items" transform="translate(390.000000, 32.000000)">
                    <g id="Item-2" transform="translate(317.000000, 3.000000)">
                        <g id="craft_icon" transform="translate(-0.000000, 0.000000)">
                            <path d="M25.0325717,29.1424361 L28.0396087,26.2553128 C28.4227886,25.8873736 28.4750256,25.3343744 28.1486252,25.0246948 C28.1486252,25.0246948 23.1108323,20.6402676 18.202172,16.3636364 L14.7272727,19.6997016 L23.7470861,29.2545937 C24.0692686,29.5602232 24.6497163,29.5097522 25.0325717,29.1424361 Z" id="Path"></path>
                            <path d="M0.230224714,26.293113 C-0.0767415712,26.6000406 -0.0767415712,27.0916315 0.230224714,27.3950749 L2.60675832,29.7713089 C2.75628163,29.9214468 2.96092582,30 3.15765035,30 C3.35437487,30 3.55901906,29.9252478 3.70854237,29.7713089 L13.9863691,19.4947778 L17.3195985,16.1619687 L20.7272727,12.7547241 L17.2489551,9.27272727 L13.6679985,12.8529156 L10.6775324,15.8430048 L0.230224714,26.293113 Z" id="Path"></path>
                            <path d="M15.1867767,5.91460263 C15.3706729,6.10123155 15.6176553,6.19646342 15.8608525,6.19646342 C16.1040498,6.19646342 16.3469316,6.10123155 16.5349284,5.91460263 L16.8916807,5.55348847 L18.0240777,6.70074498 L17.6673253,7.06185914 C17.4402151,7.29226915 17.3500019,7.61375663 17.4048868,7.91127636 C17.4282287,8.05028933 17.4831137,8.1851479 17.5692263,8.30402796 C17.5966688,8.34397421 17.6316817,8.3836009 17.6673253,8.42322759 L17.8357655,8.593878 L21.3032974,12.1069116 L21.5777223,12.384618 L21.7026329,12.5114873 C21.7578333,12.5670925 21.8130337,12.6108736 21.8713885,12.6463459 C22.024057,12.7457322 22.2003829,12.7930286 22.3770242,12.7930286 C22.6202214,12.7930286 22.8624724,12.6977967 23.0511001,12.5111678 L23.1687558,12.3919681 C25.1200114,15.059739 24.9944699,16.9090909 25.3944363,16.9090909 C25.5783325,16.9090909 25.8801999,16.5038761 26.561846,15.5988537 C28.5399133,12.9432265 27.8118987,10.3192367 26.8870553,8.62423716 L27.0908237,8.4177949 C27.4630321,8.04070223 27.4630321,7.42936471 27.0908237,7.05610688 L23.0504692,2.96912541 C22.8662575,2.7824965 22.6195906,2.68726462 22.3760779,2.68726462 C22.1331961,2.68726462 21.8906298,2.7824965 21.7020021,2.96912541 L21.3455651,3.33023957 L20.2096985,2.19129189 L20.570236,1.82602331 C20.9427599,1.44893064 20.9427599,0.837593122 20.570236,0.464335294 L20.3901249,0.281860791 C20.2065441,0.0952318773 19.9595617,0 19.7166799,0 C19.4737981,0 19.2306009,0.0952318773 19.0426041,0.281860791 L15.0066657,4.37044011 C14.6341418,4.74753278 14.6341418,5.3588703 15.0066657,5.73212813 L15.1867767,5.91460263 Z" id="Path"></path>
                            <path d="M10.1929051,14.7272727 L13.0909091,11.8283384 C10.9038074,9.84748904 9.37258476,8.46045417 9.37258476,8.46045417 C8.57993335,7.65182227 8.71670581,6.46796756 8.10327347,5.58510886 C7.568446,4.81547749 6.65820171,4.42075442 5.88472989,3.94803028 C4.65440661,3.19789918 3.42031029,2.44776808 2.18998702,1.69763697 C2.02617449,1.59604689 1.81111159,1.62341016 1.67433913,1.76022653 L0.123622438,3.31112652 C-0.0131500191,3.44794288 -0.0401900912,3.6627603 0.0613673888,3.82693994 C0.783903268,5.01456889 1.50643915,6.1984236 2.22488757,7.38605255 C2.6701055,8.11290915 3.09991688,9.18731076 3.82622579,9.67167215 C4.74401615,10.2849869 6.00169392,10.2107601 6.81415376,11.0002062 C6.82201424,11.0080692 6.82578728,11.0159323 6.8374208,11.0237953 L10.1929051,14.7272727 Z" id="Path"></path>
                        </g>
                    </g>
                </g>
            </g>
        </g>
    </g>
</svg>