<?xml version="1.0" encoding="UTF-8"?>
<svg width="24px" height="32px" viewBox="0 0 24 32" version="1.1" xmlns="http://www.w3.org/2000/svg" xmlns:xlink="http://www.w3.org/1999/xlink">
    <!-- Generator: Sketch 53.2 (72643) - https://sketchapp.com -->
    <title>about_icon</title>
    <desc>Created with Sketch.</desc>
    <g id="Page-1" stroke="none" stroke-width="1" fill="none" fill-rule="evenodd">
        <g id="1920" transform="translate(-1050.000000, -1685.000000)" fill="#757575" fill-rule="nonzero">
            <g id="Main-Navigation" transform="translate(0.000000, 1651.000000)">
                <g id="Items" transform="translate(390.000000, 32.000000)">
                    <g id="Item-3" transform="translate(660.000000, 2.000000)">
                        <g id="about_icon">
                            <path d="M17.945,6.06 L17.945,5.359 C17.945,4.563 17.299,3.918 16.504,3.918 L14.139,3.918 C14.336,3.562 14.448,3.121 14.448,2.673 C14.447,1.2 13.249,0 11.777,0 C10.305,0 9.108,1.2 9.108,2.673 C9.108,3.121 9.22,3.562 9.417,3.918 L7.477,3.918 C6.681,3.918 6.036,4.563 6.036,5.359 L6.036,6.06 L2.822,6.06 C1.615,6.06 0.637,7.039 0.637,8.246 L0.637,29.792 C0.637,30.999 1.615,31.979 2.822,31.979 L21.156,31.979 C22.363,31.979 23.342,31 23.342,29.792 L23.342,8.246 C23.342,7.039 22.363,6.06 21.156,6.06 L17.945,6.06 Z M10.187,2.674 C10.187,1.796 10.9,1.08 11.776,1.08 C12.654,1.08 13.367,1.796 13.367,2.674 C13.367,3.176 13.133,3.607 12.767,3.919 L10.786,3.919 C10.421,3.606 10.187,3.176 10.187,2.674 Z M21.156,28.492 C21.156,29.234 20.554,29.836 19.812,29.836 L4.166,29.836 C3.424,29.836 2.822,29.234 2.822,28.492 L2.822,9.59 C2.822,8.847 3.424,8.246 4.166,8.246 L6.034,8.246 C6.034,8.837 6.513,9.317 7.104,9.317 L16.873,9.317 C17.465,9.317 17.943,8.838 17.943,8.246 L19.812,8.246 C20.553,8.246 21.156,8.848 21.156,9.59 L21.156,28.492 L21.156,28.492 Z" id="Shape"></path>
                            <circle id="Oval" cx="6.852" cy="13.098" r="1.899"></circle>
                            <path d="M17.656,12.038 L11.18,12.038 C10.584,12.038 10.1,12.513 10.1,13.109 C10.1,13.705 10.583,14.18 11.18,14.18 L17.658,14.18 C18.254,14.18 18.736,13.705 18.736,13.109 C18.736,12.513 18.253,12.038 17.656,12.038 Z" id="Path"></path>
                            <circle id="Oval" cx="6.852" cy="18.485" r="1.899"></circle>
                            <path d="M17.656,17.391 L11.18,17.391 C10.584,17.391 10.1,17.889 10.1,18.485 C10.1,19.081 10.583,19.577 11.18,19.577 L17.658,19.577 C18.254,19.577 18.736,19.081 18.736,18.485 C18.736,17.889 18.253,17.391 17.656,17.391 Z" id="Path"></path>
                            <circle id="Oval" cx="6.852" cy="24.242" r="1.898"></circle>
                            <path d="M17.656,23.145 L11.18,23.145 C10.584,23.145 10.1,23.643 10.1,24.239 C10.1,24.835 10.583,25.331 11.18,25.331 L17.658,25.331 C18.254,25.331 18.736,24.834 18.736,24.239 C18.736,23.643 18.253,23.145 17.656,23.145 Z" id="Path"></path>
                        </g>
                    </g>
                </g>
            </g>
        </g>
    </g>
</svg>