<?xml version="1.0" encoding="UTF-8"?>
<svg width="37px" height="33px" viewBox="0 0 37 33" version="1.1" xmlns="http://www.w3.org/2000/svg" xmlns:xlink="http://www.w3.org/1999/xlink">
    <!-- Generator: Sketch 53.2 (72643) - https://sketchapp.com -->
    <title>Shape</title>
    <desc>Created with Sketch.</desc>
    <g id="Page-1" stroke="none" stroke-width="1" fill="none" fill-rule="evenodd">
        <g id="1920" transform="translate(-1399.000000, -1685.000000)" fill="#757575" fill-rule="nonzero">
            <g id="Main-Navigation" transform="translate(0.000000, 1651.000000)">
                <g id="Items" transform="translate(390.000000, 32.000000)">
                    <g id="Item-4" transform="translate(1009.000000, 2.000000)">
                        <g id="contacts_icon">
                            <path d="M27.6604285,7.77952954 C27.6604285,8.87706108 26.8630735,9.5445423 26.2808431,10.0343745 C26.0603405,10.2199079 25.6499108,10.5584391 25.6510064,10.6848892 C25.6549902,11.1809092 25.2570098,11.5770266 24.7619247,11.5770266 C24.7594349,11.5770266 24.756945,11.5770266 24.7544551,11.5770266 C24.2628558,11.5770266 23.862286,11.1930852 23.8583023,10.6995603 C23.8504343,9.72678224 24.5588512,9.14423321 25.1281343,8.66527951 C25.5748164,8.28942211 25.8677244,8.02494465 25.8677244,7.78292283 C25.8677244,7.29299082 25.4699433,6.89437838 24.981033,6.89437838 C24.4919236,6.89437838 24.0940428,7.29299082 24.0940428,7.78292283 C24.0940428,8.27904262 23.6927759,8.68114816 23.1976908,8.68114816 C22.7026057,8.68114816 22.3013387,8.27904262 22.3013387,7.78292283 C22.3013387,6.30244789 23.5033468,5.09792773 24.9808338,5.09792773 C26.4584204,5.09782793 27.6604285,6.29895479 27.6604285,7.77952954 Z M24.7792542,12.4061884 C24.2841691,12.4061884 23.9027215,12.8082939 23.9027215,13.3044137 L23.9027215,13.3113001 C23.9027215,13.8074199 24.2842687,14.2061321 24.7792542,14.2061321 C25.2742397,14.2061321 25.6756063,13.8005335 25.6756063,13.3044137 C25.6756063,12.8082939 25.2743393,12.4061884 24.7792542,12.4061884 Z M6.71188419,18.6631262 C6.21679907,18.6631262 5.81553214,19.0652317 5.81553214,19.5613515 C5.81553214,20.0574713 6.21679907,20.4595768 6.71188419,20.4595768 L6.7865802,20.4595768 C7.28166532,20.4595768 7.68293225,20.0574713 7.68293225,19.5613515 C7.68293225,19.0652317 7.28166532,18.6631262 6.7865802,18.6631262 L6.71188419,18.6631262 Z M9.82710596,18.6631262 C9.33202085,18.6631262 8.93075391,19.0652317 8.93075391,19.5613515 C8.93075391,20.0574713 9.33202085,20.4595768 9.82710596,20.4595768 L9.90170237,20.4595768 C10.3967875,20.4595768 10.7980544,20.0574713 10.7980544,19.5613515 C10.7980544,19.0652317 10.3967875,18.6631262 9.90170237,18.6631262 L9.82710596,18.6631262 Z M36.1528662,4.3165715 L36.1528662,14.4266963 C36.1528662,16.8204668 34.2374615,18.762929 31.8486833,18.762929 L20.2242918,18.762929 C19.9970168,18.762929 19.8098784,18.7616316 19.6533156,18.7583381 C19.4892831,18.7549448 19.3046346,18.7536473 19.2326277,18.7616316 C19.1576329,18.811533 18.9737811,18.9802995 18.7966022,19.1438763 C18.726388,19.2086484 18.6469114,19.2799076 18.5611604,19.3583526 L15.2723451,22.3622177 C15.0100127,22.6020438 14.6218923,22.6641212 14.2970145,22.5206047 C13.9721367,22.3769885 13.7440649,22.0546254 13.7440649,21.6988284 L13.7440649,12.1759433 L4.3542791,12.1759433 C2.95377881,12.1759433 1.79270411,13.3259711 1.79270411,14.7291987 L1.79270411,24.8393235 C1.79270411,26.2426509 2.9538784,27.345971 4.3542791,27.345971 L17.338835,27.345971 C17.562425,27.345971 17.7715738,27.4488677 17.9367018,27.5999692 L20.6160973,30.0754781 L20.6160973,21.5384453 C20.6160973,21.0423255 21.0173642,20.6402199 21.5124493,20.6402199 C22.0075345,20.6402199 22.4088014,21.0423255 22.4088014,21.5384453 L22.4088014,32.1113557 C22.4088014,32.4671528 22.2056283,32.7847253 21.8806508,32.9283416 C21.7644239,32.97974 21.6476989,33 21.5254962,33 C21.3059896,33 21.0894708,32.9096785 20.9210562,32.7555829 L16.9913492,29.1423218 L4.3542791,29.1423218 C1.96540127,29.1423218 0,27.233094 0,24.8392237 L0,14.7291987 C0,12.3354282 1.96540127,10.3794926 4.3542791,10.3794926 L13.7440649,10.3794926 L13.7440649,4.3165715 C13.7440649,1.92270121 15.7245049,0 18.1133827,0 L31.8487829,0 C34.2374615,0 36.1528662,1.92270121 36.1528662,4.3165715 Z M34.3601621,4.3165715 C34.3601621,2.91324414 33.2489844,1.79645065 31.8486833,1.79645065 L18.1133827,1.79645065 C16.712982,1.79645065 15.536769,2.91324414 15.536769,4.3165715 L15.536769,11.2861014 L15.536769,19.6629508 L17.3389346,18.0308754 C17.4223949,17.9545262 17.5159143,17.8846642 17.5841367,17.8215889 C18.4070874,17.0616902 18.6176306,16.9402302 19.691062,16.9623864 C19.8374661,16.9654803 20.0118564,16.9665782 20.2242918,16.9665782 L31.8486833,16.9665782 C33.2489844,16.9665782 34.3601621,15.8300237 34.3601621,14.4267961 L34.3601621,4.3165715 Z" id="Shape"></path>
                        </g>
                    </g>
                </g>
            </g>
        </g>
    </g>
</svg>