<?xml version="1.0" encoding="UTF-8"?>
<svg width="30px" height="30px" viewBox="0 0 30 30" version="1.1" xmlns="http://www.w3.org/2000/svg" xmlns:xlink="http://www.w3.org/1999/xlink">
    <!-- Generator: Sketch 53.2 (72643) - https://sketchapp.com -->
    <title>close_icon</title>
    <desc>Created with Sketch.</desc>
    <g id="Page-1" stroke="none" stroke-width="1" fill="none" fill-rule="evenodd">
        <g id="1920-Opened-block" transform="translate(-1468.000000, -203.000000)">
            <g id="Pop-up">
                <g id="close_icon" transform="translate(1468.000000, 203.000000)">
                    <circle id="Oval" fill="#000000" cx="15" cy="15" r="15"></circle>
                    <g id="Group" transform="translate(7.000000, 7.000000)" fill="#FFFFFF" fill-rule="nonzero">
                        <path d="M15.6761923,8.79208228 L8.88741097,15.6716145 C8.45556248,16.1094618 7.75539418,16.1094618 7.32375534,15.6716145 C6.89208155,15.2341567 6.89208155,14.5246422 7.32375534,14.0872198 L13.3307787,7.99988492 L7.32393005,1.91276251 C6.89225626,1.47512764 6.89225626,0.765683959 7.32393005,0.328226147 C7.75560383,-0.109408716 8.45573719,-0.109408716 8.88758568,0.328226147 L15.676367,7.20786461 C15.8922039,7.42669975 16,7.71320381 16,7.99984951 C16,8.28663685 15.8919942,8.57335337 15.6761923,8.79208228 Z" id="Path" transform="translate(11.500000, 8.000000) scale(-1, 1) translate(-11.500000, -8.000000) "></path>
                        <path d="M8.67619225,8.79208228 L1.88741097,15.6716145 C1.45556248,16.1094618 0.755394175,16.1094618 0.323755336,15.6716145 C-0.107918445,15.2341567 -0.107918445,14.5246422 0.323755336,14.0872198 L6.33077868,7.99988492 L0.323930046,1.91276251 C-0.107743735,1.47512764 -0.107743735,0.765683959 0.323930046,0.328226147 C0.755603827,-0.109408716 1.45573719,-0.109408716 1.88758568,0.328226147 L8.67636696,7.20786461 C8.89220385,7.42669975 9,7.71320381 9,7.99984951 C9,8.28663685 8.8919942,8.57335337 8.67619225,8.79208228 Z" id="Path"></path>
                    </g>
                </g>
            </g>
        </g>
    </g>
</svg>