<?xml version="1.0" encoding="UTF-8"?>
<svg width="30px" height="30px" viewBox="0 0 30 30" version="1.1" xmlns="http://www.w3.org/2000/svg" xmlns:xlink="http://www.w3.org/1999/xlink">
    <!-- Generator: Sketch 53.2 (72643) - https://sketchapp.com -->
    <title>Behance_icon</title>
    <desc>Created with Sketch.</desc>
    <g id="Page-1" stroke="none" stroke-width="1" fill="none" fill-rule="evenodd">
        <g id="1440" transform="translate(-1085.000000, -35.000000)">
            <g id="Header">
                <g id="Right" transform="translate(1030.000000, 35.000000)">
                    <g id="Behance_icon" transform="translate(55.000000, 0.000000)">
                        <rect id="behance" fill="#000000" opacity="0.198172433" x="0" y="0" width="30" height="30"></rect>
                        <g id="behance" transform="translate(5.000000, 9.000000)" fill="#E7E7E7" fill-rule="nonzero">
                            <path d="M8.34778933,5.75313697 C8.76885679,5.54057637 9.08719394,5.30383224 9.30533733,5.04799584 C9.69342963,4.58723576 9.88493923,3.97628316 9.88493923,3.2189565 C9.88493923,2.48199493 9.69342963,1.85195006 9.31041043,1.32373063 C8.67119958,0.46330572 7.58936058,0.0229107224 6.05982033,0 L0,0 L0,12.4137931 L5.65016734,12.4137931 C6.28684164,12.4137931 6.87658975,12.3590619 7.42194821,12.247054 C7.96730668,12.1337732 8.43910516,11.9263038 8.83861194,11.6233732 C9.19372908,11.3598999 9.49050555,11.0327857 9.72640479,10.6471218 C10.0992778,10.0641712 10.2857143,9.40357874 10.2857143,8.66788999 C10.2857143,7.95511195 10.1221067,7.34797781 9.79742822,6.84903319 C9.46894487,6.35008857 8.98700018,5.98478983 8.34778933,5.75313697 Z M2.49977101,2.15615354 L5.22909988,2.15615354 C5.82899419,2.15615354 6.32362163,2.22106726 6.71171393,2.34962187 C7.16068346,2.5367261 7.38516822,2.91729866 7.38516822,3.49770362 C7.38516822,4.01828615 7.21395103,4.38231207 6.87532147,4.58723576 C6.53415536,4.79215944 6.09152722,4.89525769 5.5487053,4.89525769 L2.49977101,4.89525769 L2.49977101,2.15615354 Z M6.81571252,10.0412605 C6.51386296,10.1876346 6.08899066,10.2601852 5.54490048,10.2601852 L2.49977101,10.2601852 L2.49977101,6.9495858 L5.58675357,6.9495858 C6.12450238,6.95340426 6.54303329,7.02468206 6.84234631,7.15832794 C7.37502202,7.40016334 7.6400916,7.84310398 7.6400916,8.4909683 C7.6400916,9.25465904 7.36614409,9.76887748 6.81571252,10.0412605 Z" id="Shape"></path>
                            <rect id="Rectangle" x="13.1428571" y="0.564263323" width="5.14285714" height="1.69278997"></rect>
                            <path d="M19.9171741,6.4526697 C19.8062401,5.74420636 19.5616811,5.12100941 19.1809757,4.58307883 C18.7637125,3.97367497 18.2342547,3.52728037 17.5900811,3.24514895 C16.9484287,2.96176361 16.226097,2.82007095 15.4218254,2.82132486 C14.071708,2.82132486 12.974974,3.2413872 12.1265809,4.07524228 C11.2807091,4.9116052 10.8571429,6.114112 10.8571429,7.68150877 C10.8571429,9.35298069 11.3248306,10.5605032 12.2652485,11.3015684 C13.2018845,12.0438875 14.2834911,12.4137931 15.511329,12.4137931 C16.9975926,12.4137931 18.1535755,11.9736681 18.9792775,11.0959259 C19.5074747,10.5416944 19.8062401,9.99624032 19.871792,9.46081759 L17.4110739,9.46081759 C17.2686246,9.72539416 17.1034842,9.93229054 16.9143921,10.0827606 C16.5715052,10.3586225 16.1252479,10.4965534 15.5781415,10.4965534 C15.057508,10.4965534 14.6162932,10.3824469 14.2481939,10.1554878 C13.6405781,9.79185178 13.3229034,9.15486174 13.2825638,8.24827944 L19.9978534,8.24827944 C20.0079383,7.46708889 19.9827261,6.86646245 19.9171741,6.4526697 Z M13.3430732,6.68715226 C13.4313162,6.09906499 13.6456206,5.63260771 13.9859863,5.28778042 C14.326352,4.94420705 14.8079065,4.77116645 15.4243466,4.76991253 C15.9928834,4.76991253 16.4681348,4.93166788 16.8551433,5.25643249 C17.2371092,5.58370493 17.4526742,6.05893963 17.4967957,6.68715226 L13.3430732,6.68715226 Z" id="Shape"></path>
                        </g>
                    </g>
                </g>
            </g>
        </g>
    </g>
</svg>