<?xml version="1.0" encoding="UTF-8"?>
<svg width="162px" height="39px" viewBox="0 0 162 39" version="1.1" xmlns="http://www.w3.org/2000/svg" xmlns:xlink="http://www.w3.org/1999/xlink">
    <!-- Generator: Sketch 53 (72520) - https://sketchapp.com -->
    <title>Binarnia_logo</title>
    <desc>Created with Sketch.</desc>
    <defs>
        <path d="M10.0063768,0.362039337 C9.84339545,0.362888199 9.6765942,0.411273292 9.52464803,0.517805383 L9.52464803,0.517805383 L0.723229814,6.68732919 C0.269513458,7.00522774 0,7.52388199 0,8.07733954 L0,8.07733954 L0,11.1650725 C0,11.3365424 0.193115942,11.4375569 0.334451346,11.3386646 L0.334451346,11.3386646 L6.73953416,6.84818841 C6.96490683,6.69072464 7.27516563,6.85158385 7.27516563,7.12661491 L7.27516563,7.12661491 L7.27516563,29.4877433 C7.27516563,29.7648965 7.13934783,30.024648 6.91227743,30.1838095 L6.91227743,30.1838095 L4.12334369,32.1366149 C3.89797101,32.2945031 3.58898551,32.1332195 3.58898551,31.8581884 L3.58898551,31.8581884 L3.58898551,14.6640787 C3.58898551,14.4921843 3.3950207,14.3915942 3.25453416,14.4904865 L3.25453416,14.4904865 L0.181231884,16.6423499 C0.067484472,16.7217184 0,16.8515942 0,16.9899586 L0,16.9899586 L0,37.7713561 C0,38.270911 0.407877847,38.6202174 0.847163561,38.6231884 L0.847163561,38.6231884 L0.856925466,38.6231884 C1.01990683,38.6223395 1.18670807,38.5739545 1.33822981,38.4678468 L1.33822981,38.4678468 L10.139648,32.3025673 C10.5933644,31.9846687 10.8633023,31.4655901 10.8633023,30.9121325 L10.8633023,30.9121325 L10.8633023,1.21387164 C10.8633023,0.71431677 10.4554244,0.365010352 10.0157143,0.362039337 L10.0157143,0.362039337 L10.0063768,0.362039337 Z" id="path-1"></path>
        <polygon id="path-3" points="0.399601449 0.380035197 20.4575569 0.380035197 20.4575569 19.6445176 0.399601449 19.6445176"></polygon>
    </defs>
    <g id="Page-1" stroke="none" stroke-width="1" fill="none" fill-rule="evenodd">
        <g id="1920" transform="translate(-50.000000, -30.000000)">
            <g id="Header">
                <g id="Left" transform="translate(50.000000, 30.000000)">
                    <g id="Binarnia_logo" transform="translate(0.000000, 0.000000)">
                        <g id="Group-3" transform="translate(0.000000, 0.062264)">
                            <mask id="mask-2" fill="white">
                                <use xlink:href="#path-1"></use>
                            </mask>
                            <g id="Clip-2"></g>
                            <path d="M10.0063768,0.362039337 C9.84339545,0.362888199 9.6765942,0.411273292 9.52464803,0.517805383 L9.52464803,0.517805383 L0.723229814,6.68732919 C0.269513458,7.00522774 0,7.52388199 0,8.07733954 L0,8.07733954 L0,11.1650725 C0,11.3365424 0.193115942,11.4375569 0.334451346,11.3386646 L0.334451346,11.3386646 L6.73953416,6.84818841 C6.96490683,6.69072464 7.27516563,6.85158385 7.27516563,7.12661491 L7.27516563,7.12661491 L7.27516563,29.4877433 C7.27516563,29.7648965 7.13934783,30.024648 6.91227743,30.1838095 L6.91227743,30.1838095 L4.12334369,32.1366149 C3.89797101,32.2945031 3.58898551,32.1332195 3.58898551,31.8581884 L3.58898551,31.8581884 L3.58898551,14.6640787 C3.58898551,14.4921843 3.3950207,14.3915942 3.25453416,14.4904865 L3.25453416,14.4904865 L0.181231884,16.6423499 C0.067484472,16.7217184 0,16.8515942 0,16.9899586 L0,16.9899586 L0,37.7713561 C0,38.270911 0.407877847,38.6202174 0.847163561,38.6231884 L0.847163561,38.6231884 L0.856925466,38.6231884 C1.01990683,38.6223395 1.18670807,38.5739545 1.33822981,38.4678468 L1.33822981,38.4678468 L10.139648,32.3025673 C10.5933644,31.9846687 10.8633023,31.4655901 10.8633023,30.9121325 L10.8633023,30.9121325 L10.8633023,1.21387164 C10.8633023,0.71431677 10.4554244,0.365010352 10.0157143,0.362039337 L10.0157143,0.362039337 L10.0063768,0.362039337 Z" id="Fill-1" fill="#00AE5A" mask="url(#mask-2)"></path>
                        </g>
                        <g id="Group-25" transform="translate(21.645963, 4.731001)">
                            <path d="M3.54531159,23.6333168 L10.9894006,23.6333168 C13.3331066,23.6333168 14.5049596,21.6686273 14.5049596,19.7731201 C14.5049596,17.8771884 13.3331066,15.9477267 10.9894006,15.9477267 L3.54531159,15.9477267 L3.54531159,23.6333168 Z M3.54531159,12.5009255 L10.0594731,12.5009255 C13.8500631,12.5009255 14.1598975,5.95323395 10.127382,5.95323395 L3.54531159,5.95323395 L3.54531159,12.5009255 Z M10.127382,2.6447971 C16.3312847,2.6447971 18.9160673,10.1915983 14.2286553,13.7419607 C16.9861812,14.9138137 17.9852909,17.4633685 17.9852909,19.7391656 C17.9852909,23.3574369 15.6076304,27.0109358 10.9894006,27.0109358 L0.438479296,27.0109358 C0.250880952,27.0109358 0.0989347826,26.8589896 0.0989347826,26.6713913 L0.0989347826,2.98434161 C0.0989347826,2.79674327 0.250880952,2.6447971 0.438479296,2.6447971 L10.127382,2.6447971 Z" id="Fill-4" fill="#203649"></path>
                            <g id="Group-8" transform="translate(119.265010, 7.639752)">
                                <mask id="mask-4" fill="white">
                                    <use xlink:href="#path-3"></use>
                                </mask>
                                <g id="Clip-7"></g>
                                <path d="M10.5668375,16.646764 C6.29282091,16.7507495 3.77679607,13.5110704 3.77679607,9.92590476 C3.77679607,6.47443478 5.96388716,3.73388613 9.63521222,3.38330642 C9.84954969,3.36293375 10.0664337,3.34765424 10.2909576,3.34383437 C10.4921377,3.34128778 10.69544,3.34850311 10.8987422,3.36463147 C13.9058333,3.59806832 17.0801501,5.7987412 17.0801501,9.99551139 C17.0801501,14.3722402 13.6337733,16.5775818 10.5668375,16.646764 M17.0852433,1.02983851 L17.0856677,3.17151553 C15.7296118,1.335853 13.6308023,0.642757764 11.6461646,0.449217391 C11.2094255,0.406774327 10.7765062,0.380035197 10.3601398,0.380035197 C4.05267598,0.380035197 0.399601449,4.89470393 0.399601449,9.92590476 C0.399601449,15.06194 3.91473602,19.6445176 10.4288975,19.6445176 C12.7373758,19.6109876 15.7410714,18.8109358 17.0852433,16.7770642 L17.0852433,19.0286687 C17.0852433,19.2158427 17.2371894,19.3682133 17.4247878,19.3682133 L20.1178002,19.3682133 C20.3053986,19.3682133 20.4577692,19.2158427 20.4577692,19.0286687 L20.4577692,1.02983851 C20.4577692,0.842240166 20.3053986,0.689869565 20.1178002,0.689869565 L17.4247878,0.690293996 C17.2371894,0.690293996 17.0852433,0.842240166 17.0852433,1.02983851" id="Fill-6" fill="#203649" mask="url(#mask-4)"></path>
                            </g>
                            <path d="M61.7428592,24.2902505 C57.4688427,24.394236 54.9528178,21.1545569 54.9528178,17.5693913 C54.9528178,14.1179213 57.1403333,11.3773727 60.811234,11.026793 C61.0255714,11.0068447 61.2424555,10.9911408 61.4669793,10.9873209 C61.6681594,10.9847743 61.8714617,10.9919896 62.074764,11.008118 C65.0822795,11.2415549 68.2561718,13.4422277 68.2561718,17.6389979 C68.2561718,22.0157267 64.809795,24.2210683 61.7428592,24.2902505 M68.261265,8.67332505 L68.2616894,10.8150021 C66.9056335,8.97933954 64.806824,8.28624431 62.8221863,8.09270393 C62.3854472,8.05026087 61.952528,8.02352174 61.5361615,8.02352174 C55.2286977,8.02352174 51.5756232,12.5381905 51.5756232,17.5693913 C51.5756232,22.7054265 55.0911822,27.2880041 61.6049193,27.2880041 C63.9138219,27.2544741 66.9175176,26.4544224 68.261265,24.4205507 L68.261265,26.6721553 C68.261265,26.8593292 68.4132112,27.0116998 68.6008095,27.0116998 L71.2938219,27.0116998 C71.4814203,27.0116998 71.6333665,26.8593292 71.6333665,26.6721553 L71.6333665,8.67332505 C71.6333665,8.48572671 71.4814203,8.33335611 71.2938219,8.33335611 L68.6008095,8.33378054 C68.4132112,8.33378054 68.261265,8.48572671 68.261265,8.67332505" id="Fill-9" fill="#203649"></path>
                            <path d="M100.558994,8.22304658 C100.558994,8.22304658 100.399408,8.20140062 100.317068,8.19248758 C100.06623,8.16107971 99.8086004,8.13731159 99.5424824,8.12245652 C99.4635383,8.11778778 98.6380207,8.104206 98.5357329,8.10717702 C98.4640041,8.10887474 98.3926998,8.11184576 98.3222443,8.11566563 C98.054853,8.12839855 97.7925549,8.15301553 97.5370476,8.18781884 C97.500971,8.19248758 97.4640455,8.19673188 97.4283934,8.20182505 C96.6954017,8.31090373 96.013766,8.51505487 95.3779689,8.82531366 C94.6203602,9.1720735 93.8788799,9.63937164 93.1089627,10.2705 L93.1089627,8.67251863 C93.1089627,8.48492029 92.9570166,8.33297412 92.7694182,8.33297412 L90.0764058,8.33297412 C89.8888075,8.33297412 89.7368613,8.48492029 89.7368613,8.67251863 L89.7368613,26.6705 C89.7368613,26.8580983 89.8888075,27.0100445 90.0764058,27.0104689 L92.7694182,27.0108934 C92.9570166,27.0108934 93.1089627,26.8589472 93.1089627,26.6713489 L93.1089627,16.9119907 C93.1089627,13.4600963 95.7319441,10.9546822 98.9181449,10.9920321 C99.0921615,10.9979741 99.263207,11.0056139 99.4253395,11.0208934 C99.462265,11.0247133 99.4996149,11.0285331 99.5369648,11.0327774 C99.700795,11.0506035 99.8557122,11.0747961 100.006385,11.1023841 C100.126923,11.1253033 100.248311,11.1524669 100.369273,11.1830259 C102.968062,11.8311315 103.591126,14.0335021 103.591126,16.983295 L103.591126,26.6709244 C103.591126,26.8585228 103.743072,27.0104689 103.930246,27.0104689 L106.594822,27.0104689 C106.78242,27.0104689 106.934366,26.8585228 106.934366,26.6709244 L106.934366,16.9484917 C106.934366,12.18256 105.009998,8.88176294 100.558994,8.22304658" id="Fill-11" fill="#203649"></path>
                            <path d="M41.6791739,8.22304658 C41.6791739,8.22304658 41.519588,8.20140062 41.436824,8.19248758 C41.1859855,8.16107971 40.9287805,8.13731159 40.6626625,8.12245652 C40.583294,8.11778778 39.7577764,8.104206 39.655913,8.10717702 C39.5841843,8.10887474 39.5128799,8.11184576 39.4424244,8.11566563 C39.1746087,8.12839855 38.912735,8.15301553 38.6568033,8.18781884 C38.6211511,8.19248758 38.5842257,8.19673188 38.5485735,8.20182505 C37.8155818,8.31090373 37.1339462,8.51505487 36.4977246,8.82531366 C35.7405404,9.1720735 34.9986356,9.63937164 34.2291429,10.2705 L34.2291429,8.67251863 C34.2291429,8.48492029 34.0771967,8.33297412 33.8895983,8.33297412 L31.1965859,8.33297412 C31.0089876,8.33297412 30.856617,8.48492029 30.856617,8.67251863 L30.8570414,26.6705 C30.8570414,26.8580983 31.0089876,27.0100445 31.1965859,27.0104689 L33.8895983,27.0108934 C34.0771967,27.0108934 34.2291429,26.8589472 34.2291429,26.6713489 L34.2291429,16.9119907 C34.2291429,13.4600963 36.8521242,10.9546822 40.0379006,10.9920321 C40.2119172,10.9979741 40.3833872,11.0056139 40.5455197,11.0208934 C40.5824451,11.0247133 40.619795,11.0285331 40.6571449,11.0327774 C40.8205507,11.0506035 40.9754679,11.0747961 41.1265652,11.1023841 C41.2471035,11.1253033 41.3680663,11.1524669 41.4894534,11.1830259 C44.0878178,11.8311315 44.7113064,14.0335021 44.7113064,16.983295 L44.7113064,26.6709244 C44.7113064,26.8585228 44.8628282,27.0104689 45.0504265,27.0104689 L47.7150021,27.0104689 C47.9026004,27.0104689 48.0545466,26.8585228 48.0545466,26.6709244 L48.0545466,16.9484917 C48.0545466,12.18256 46.1297536,8.88176294 41.6791739,8.22304658" id="Fill-13" fill="#203649"></path>
                            <path d="M79.4423385,8.70570911 L79.4423385,10.2705849 C81.7652474,8.3661646 83.820765,7.82756211 86.8923696,8.21039855 L86.8923696,11.2255538 C83.0177422,10.1284006 79.4423385,12.8804089 79.4423385,16.9120756 L79.4423385,26.6714337 C79.4423385,26.8590321 79.2903923,27.0105538 79.102794,27.0105538 L76.4093571,27.0101294 C76.2221832,27.0101294 76.0702371,26.8581832 76.0702371,26.6705849 L76.0702371,8.70528468 C76.0702371,8.51768634 76.2221832,8.36574017 76.4093571,8.36574017 L79.102794,8.3661646 C79.2903923,8.3661646 79.4423385,8.51811077 79.4423385,8.70570911" id="Fill-15" fill="#203649"></path>
                            <path d="M110.13729,8.67273085 L110.13729,11.3691387 C110.13729,11.5563126 110.289236,11.7086832 110.476834,11.7086832 L112.192807,11.7086832 L112.192383,26.6711366 C112.192383,26.858735 112.344329,27.0111056 112.531928,27.0111056 L115.230033,27.0111056 C115.417631,27.0111056 115.570002,26.858735 115.570002,26.6711366 L115.570427,8.67273085 C115.570427,8.48513251 115.418056,8.33318634 115.230882,8.33318634 L110.476834,8.33318634 C110.289236,8.33318634 110.13729,8.48513251 110.13729,8.67273085" id="Fill-17" fill="#203649"></path>
                            <path d="M115.570342,2.25033126 C115.570342,3.46632505 114.584389,4.45227743 113.368395,4.45227743 C112.151977,4.45227743 111.166449,3.46632505 111.166449,2.25033126 C111.166449,1.03433747 112.151977,0.0483850932 113.368395,0.0483850932 C114.584389,0.0483850932 115.570342,1.03433747 115.570342,2.25033126" id="Fill-19" fill="#203649"></path>
                            <path d="M20.7432412,8.67273085 L20.7432412,11.3691387 C20.7432412,11.5563126 20.8951874,11.7086832 21.0827857,11.7086832 L22.5865435,11.7086832 C22.7036863,11.7086832 22.7987588,11.8033313 22.7987588,11.9208986 L22.7983344,26.6711366 C22.7983344,26.858735 22.9502805,27.0111056 23.1378789,27.0111056 L25.8364089,27.0111056 C26.0235828,27.0111056 26.175529,26.858735 26.175529,26.6711366 L26.1763778,8.67273085 C26.1763778,8.48513251 26.0240072,8.33318634 25.8364089,8.33318634 L21.0827857,8.33318634 C20.8951874,8.33318634 20.7432412,8.48513251 20.7432412,8.67273085" id="Fill-21" fill="#203649"></path>
                            <path d="M26.1760807,2.25033126 C26.1760807,3.46632505 25.1901284,4.45227743 23.9741346,4.45227743 C22.7581408,4.45227743 21.7721884,3.46632505 21.7721884,2.25033126 C21.7721884,1.03433747 22.7581408,0.0483850932 23.9741346,0.0483850932 C25.1901284,0.0483850932 26.1760807,1.03433747 26.1760807,2.25033126" id="Fill-23" fill="#203649"></path>
                        </g>
                    </g>
                </g>
            </g>
        </g>
    </g>
</svg>