<?xml version="1.0" encoding="UTF-8"?>
<svg width="16px" height="60px" viewBox="0 0 16 60" version="1.1" xmlns="http://www.w3.org/2000/svg" xmlns:xlink="http://www.w3.org/1999/xlink">
    <!-- Generator: Sketch 53.2 (72643) - https://sketchapp.com -->
    <title>Binarnia_logo</title>
    <desc>Created with Sketch.</desc>
    <g id="Page-1" stroke="none" stroke-width="1" fill="none" fill-rule="evenodd">
        <g id="375" transform="translate(-180.000000, -20.000000)" fill="#00AE5A" fill-rule="nonzero">
            <g id="Header">
                <g id="Binarnia_logo" transform="translate(180.000000, 20.000000)">
                    <path d="M4.50025946e-06,12.5396694 L4.50025946e-06,17.2558728 C-0.000618438768,17.3775994 0.063472624,17.4894462 0.165979655,17.5455198 C0.268486687,17.6015934 0.392150675,17.5924527 0.486229449,17.5218485 L9.77374145,10.6583778 C9.92458345,10.5466323 10.122016,10.5330744 10.285339,10.6232458 C10.448662,10.7134172 10.5505048,10.8922064 10.5492395,11.0865338 L10.5492395,45.2611687 C10.5499807,45.6845273 10.354708,46.0816407 10.026086,46.3250715 L5.9824178,49.3091893 C5.83349346,49.42543 5.63482944,49.4423386 5.47013931,49.3527901 C5.30544919,49.2632416 5.2033714,49.0828078 5.20691978,48.8875204 L5.20691978,22.607823 C5.20754272,22.4860964 5.14345165,22.3742496 5.04094462,22.318176 C4.93843759,22.2621024 4.8147736,22.271243 4.72069483,22.3418473 L0.264658586,25.630864 C0.0991807041,25.7518617 0.000335927326,25.9505385 4.50025946e-06,26.1628154 L4.50025946e-06,57.9501562 C-0.000845143001,58.4348092 0.254654132,58.8795559 0.662504231,59.1033671 C1.07035433,59.3271783 1.56255038,59.2927358 1.93874955,59.014059 L14.7036931,49.5621905 C15.3556156,49.0792886 15.7454863,48.2936858 15.75,47.4538465 L15.75,2.04335969 C15.7485551,1.55987262 15.4921707,1.11733851 15.084772,0.8951382 C14.6773733,0.672937888 14.1865492,0.707935225 13.811255,0.985944072 L1.04631135,10.4118637 C0.389067527,10.8987255 -0.00147795095,11.6929522 4.50025946e-06,12.5396694 Z" id="Path"></path>
                </g>
            </g>
        </g>
    </g>
</svg>