<?xml version="1.0" encoding="UTF-8"?>
<svg width="30px" height="30px" viewBox="0 0 30 30" version="1.1" xmlns="http://www.w3.org/2000/svg" xmlns:xlink="http://www.w3.org/1999/xlink">
    <!-- Generator: Sketch 53.2 (72643) - https://sketchapp.com -->
    <title>Dribbble_icon</title>
    <desc>Created with Sketch.</desc>
    <g id="Page-1" stroke="none" stroke-width="1" fill="none" fill-rule="evenodd">
        <g id="1440" transform="translate(-1140.000000, -35.000000)">
            <g id="Header">
                <g id="Right" transform="translate(1030.000000, 35.000000)">
                    <g id="Dribbble_icon" transform="translate(110.000000, 0.000000)">
                        <rect id="dribbble" fill="#000000" opacity="0.198172433" x="0" y="0" width="30" height="30"></rect>
                        <g id="ball-of-basketball" transform="translate(6.000000, 6.000000)" fill="#E7E7E7" fill-rule="nonzero">
                            <path d="M9.72957055,1.4535092 C9.93309202,1.18376687 9.9003681,0.611631902 9.87139877,0.106932515 C9.87029448,0.0851779141 9.86907975,0.0639018405 9.86786503,0.0422944785 C9.58258896,0.0150552147 9.29381595,0 9.00154601,0 C7.88160736,0 6.81,0.206319018 5.82095706,0.580343558 C6.5264908,0.919398773 7.61860123,1.5029816 8.83251534,2.36525153 C9.24669939,2.00882209 9.55906748,1.67977914 9.72957055,1.4535092 Z" id="Path"></path>
                            <path d="M14.2882086,6.58730061 C13.8447607,6.63739877 13.470773,6.71017178 13.1509325,6.8122454 C14.6799018,9.48176687 15.2760368,12.8543926 15.4219141,15.2977178 C16.936638,13.7543558 17.898589,11.6679387 17.989546,9.35687117 C16.9458405,8.07397546 15.5631902,6.44267485 14.2882086,6.58730061 Z" id="Path"></path>
                            <path d="M5.19872393,4.28304294 C6.2730184,4.05949693 7.28230675,3.51879755 8.08704294,2.94806135 C6.40822086,1.79179141 5.00797546,1.19171779 4.72943558,1.07749693 C2.98770552,2.01905521 1.59393865,3.51923926 0.783092025,5.33694479 C1.83703067,4.9170184 2.97846626,4.70337423 4.09958282,4.49521472 C4.46226994,4.42785276 4.83717791,4.3582454 5.19872393,4.28304294 Z" id="Path"></path>
                            <path d="M11.4173374,4.54465031 C11.513227,4.6410184 11.6088589,4.73904294 11.7038282,4.83890798 C12.0542945,5.20682209 12.3722945,5.60922699 12.6639018,6.03496933 C13.0885767,5.87462577 13.5885276,5.76092025 14.1869816,5.6932638 C15.5970552,5.53376687 16.8508712,6.65076074 17.9270061,7.88050307 C17.6962822,6.01626994 16.8967362,4.3290184 15.7053865,2.99838037 C15.0551043,3.07674847 14.330135,3.20952147 13.5912147,3.43001227 C13.1065031,3.57478528 12.3345644,3.96813497 11.4173374,4.54465031 Z" id="Path"></path>
                            <path d="M10.2335337,9.19096933 C10.6025521,7.94109202 11.0299877,7.04009816 11.858135,6.4552638 C11.6095951,6.09846626 11.342135,5.76360736 11.0524049,5.45941104 C10.9183804,5.31865031 10.7828466,5.18271166 10.6467239,5.04916564 C7.32415951,7.31072393 2.77288344,11.4651166 2.35903067,15.0646012 C3.74050307,16.5760859 5.63112883,17.6126503 7.75947239,17.9067239 C8.53442945,16.3638405 9.26381595,13.2273129 9.69736196,11.3619018 C9.90566871,10.4659141 10.0854479,9.69228221 10.2335337,9.19096933 Z" id="Path"></path>
                            <path d="M6.46630675,7.20894479 C7.62478528,6.14142331 8.84819632,5.18414724 9.96717791,4.41478528 C9.59418405,4.08478528 9.22004908,3.78058896 8.85276074,3.50160736 C7.92334969,4.20025767 6.7064908,4.88838037 5.38192638,5.16386503 C5.01099387,5.24105521 4.63115337,5.31161963 4.26393865,5.37979141 C2.84904294,5.64253988 1.49083436,5.89700613 0.348625767,6.53429448 C0.126184049,7.31727607 0.00452760736,8.14277301 0.00452760736,8.99705521 C0.00452760736,10.9081104 0.602245399,12.678773 1.61823313,14.1358528 C2.27642945,11.5298282 4.53404908,8.98947239 6.46630675,7.20894479 Z" id="Path"></path>
                            <path d="M10.7421718,3.90092025 C11.8125276,3.21853988 12.7353129,2.74671166 13.3340245,2.568 C13.8716687,2.40743558 14.3990798,2.2904908 14.8985153,2.20520245 C13.7444172,1.20231902 12.333681,0.487546012 10.7763313,0.17598773 C10.8108589,0.804331288 10.8259141,1.49418405 10.4479141,1.9953865 C10.268319,2.23339877 9.9644908,2.55982822 9.56915337,2.91397546 C9.95631902,3.21533742 10.3497791,3.54397546 10.7421718,3.90092025 Z" id="Path"></path>
                            <path d="M11.096319,9.44573006 C10.9558528,9.92160736 10.7786503,10.6834601 10.5736564,11.5655337 C9.96835583,14.1700123 9.38915337,16.5005153 8.7127362,17.9867117 C8.80877301,17.9897669 8.90477301,17.9940368 9.00154601,17.9940368 C11.0983436,17.9940368 13.0258896,17.2748098 14.5555951,16.0723436 C14.4951902,13.5154969 13.8822331,9.89896933 12.3382454,7.21431902 C11.7394233,7.6593865 11.4171166,8.35954601 11.096319,9.44573006 Z" id="Path"></path>
                        </g>
                    </g>
                </g>
            </g>
        </g>
    </g>
</svg>