<?xml version="1.0" encoding="UTF-8"?>
<svg width="30px" height="30px" viewBox="0 0 30 30" version="1.1" xmlns="http://www.w3.org/2000/svg" xmlns:xlink="http://www.w3.org/1999/xlink">
    <!-- Generator: Sketch 53.2 (72643) - https://sketchapp.com -->
    <title>Facebook_icon</title>
    <desc>Created with Sketch.</desc>
    <g id="Page-1" stroke="none" stroke-width="1" fill="none" fill-rule="evenodd">
        <g id="1440" transform="translate(-1305.000000, -35.000000)">
            <g id="Header">
                <g id="Right" transform="translate(1030.000000, 35.000000)">
                    <g id="Facebook_icon" transform="translate(275.000000, 0.000000)">
                        <rect id="facebook" fill="#000000" opacity="0.198172433" x="0" y="0" width="30" height="30"></rect>
                        <g id="facebook-logo" transform="translate(10.000000, 6.000000)" fill="#E7E7E7" fill-rule="nonzero">
                            <path d="M9.62342935,0.00374520146 L7.22488407,0 C4.5302007,0 2.78877793,1.73870978 2.78877793,4.42982429 L2.78877793,6.4722699 L0.377147915,6.4722699 C0.16875445,6.4722699 1.50990331e-14,6.63668425 1.50990331e-14,6.83948691 L1.50990331e-14,9.79875784 C1.50990331e-14,10.0015605 0.168946872,10.1657876 0.377147915,10.1657876 L2.78877793,10.1657876 L2.78877793,17.6329703 C2.78877793,17.8357729 2.95753238,18 3.16592584,18 L6.31241702,18 C6.52081048,18 6.68956493,17.8355857 6.68956493,17.6329703 L6.68956493,10.1657876 L9.50932287,10.1657876 C9.71771633,10.1657876 9.88647078,10.0015605 9.88647078,9.79875784 L9.88762532,6.83948691 C9.88762532,6.74211167 9.84779388,6.64885615 9.77717485,6.57994445 C9.70655583,6.51103274 9.61034463,6.4722699 9.51028498,6.4722699 L6.68956493,6.4722699 L6.68956493,4.74086327 C6.68956493,3.9086795 6.89334026,3.48622078 8.00727357,3.48622078 L9.62304451,3.485659 C9.83124555,3.485659 10,3.32124466 10,3.11862926 L10,0.370774945 C10,0.168346806 9.83143797,0.00411972161 9.62342935,0.00374520146 Z" id="Path"></path>
                        </g>
                    </g>
                </g>
            </g>
        </g>
    </g>
</svg>