<?xml version="1.0" encoding="UTF-8"?>
<svg width="30px" height="30px" viewBox="0 0 30 30" version="1.1" xmlns="http://www.w3.org/2000/svg" xmlns:xlink="http://www.w3.org/1999/xlink">
    <!-- Generator: Sketch 53.2 (72643) - https://sketchapp.com -->
    <title>Github_icon</title>
    <desc>Created with Sketch.</desc>
    <g id="Page-1" stroke="none" stroke-width="1" fill="none" fill-rule="evenodd">
        <g id="1440" transform="translate(-1195.000000, -35.000000)">
            <g id="Header">
                <g id="Right" transform="translate(1030.000000, 35.000000)">
                    <g id="Github_icon" transform="translate(165.000000, 0.000000)">
                        <rect id="github" fill="#000000" opacity="0.198172433" x="0" y="0" width="30" height="30"></rect>
                        <g id="github-logo" transform="translate(6.000000, 6.000000)" fill="#E7E7E7" fill-rule="nonzero">
                            <path d="M9.013125,8.952375 C9.009,8.952375 9.0043125,8.9521875 9,8.952 C8.9955,8.9521875 8.9908125,8.952375 8.9866875,8.952375 C7.86975,8.952375 6.8855625,8.669625 6.3039375,9.203625 C5.955375,9.5240625 5.8085625,9.910125 5.8085625,10.3258125 C5.8085625,12.06225 7.1998125,12.2754375 8.9865,12.2754375 L9.013125,12.2754375 C10.7998125,12.2754375 12.1910625,12.0620625 12.1910625,10.3258125 C12.1910625,9.9099375 12.04425,9.5240625 11.6956875,9.203625 C11.1140625,8.669625 10.1300625,8.952375 9.013125,8.952375 Z M7.494,11.3251875 C7.1540625,11.3251875 6.8784375,10.9434375 6.8784375,10.472625 C6.8784375,10.0018125 7.1540625,9.62025 7.494,9.62025 C7.8339375,9.62025 8.1099375,10.0018125 8.1099375,10.472625 C8.1099375,10.9434375 7.8339375,11.3251875 7.494,11.3251875 Z M10.5058125,11.3251875 C10.1656875,11.3251875 9.889875,10.9434375 9.889875,10.472625 C9.889875,10.0018125 10.1656875,9.62025 10.5058125,9.62025 C10.8455625,9.62025 11.121375,10.0018125 11.121375,10.472625 C11.121375,10.9434375 10.84575,11.3251875 10.5058125,11.3251875 Z M9,0 C4.0291875,0 0,4.029375 0,9 C0,13.970625 4.0291875,18 9,18 C13.9704375,18 18,13.970625 18,9 C18,4.029375 13.9704375,0 9,0 Z M9.820875,12.6939375 C9.659625,12.6939375 9.339,12.6943125 9,12.6946875 C8.6608125,12.6943125 8.34,12.6939375 8.1789375,12.6939375 C7.465875,12.6939375 4.642125,12.639375 4.642125,9.2355 C4.642125,8.4523125 4.910625,7.8793125 5.3499375,7.402125 C5.2798125,7.2290625 5.27625,6.2461875 5.6503125,5.3053125 C5.6503125,5.3053125 6.5083125,5.3994375 7.8065625,6.29025 C8.078625,6.2150625 8.5393125,6.1775625 9,6.1775625 C9.4603125,6.1775625 9.921,6.214875 10.1934375,6.29025 C11.4915,5.3994375 12.3493125,5.3053125 12.3493125,5.3053125 C12.723375,6.2461875 12.72,7.2290625 12.649875,7.402125 C13.089375,7.8793125 13.357875,8.4525 13.357875,9.2355 C13.357875,12.639375 10.5339375,12.6939375 9.820875,12.6939375 Z" id="Shape"></path>
                        </g>
                    </g>
                </g>
            </g>
        </g>
    </g>
</svg>