<?xml version="1.0" encoding="UTF-8"?>
<svg width="30px" height="30px" viewBox="0 0 30 30" version="1.1" xmlns="http://www.w3.org/2000/svg" xmlns:xlink="http://www.w3.org/1999/xlink">
    <!-- Generator: Sketch 53.2 (72643) - https://sketchapp.com -->
    <title>Linkedin_icon</title>
    <desc>Created with Sketch.</desc>
    <g id="Page-1" stroke="none" stroke-width="1" fill="none" fill-rule="evenodd">
        <g id="1440" transform="translate(-1360.000000, -35.000000)">
            <g id="Header">
                <g id="Right" transform="translate(1030.000000, 35.000000)">
                    <g id="Linkedin_icon" transform="translate(330.000000, 0.000000)">
                        <rect id="linkedin" fill="#000000" opacity="0.198172433" x="0" y="0" width="30" height="30"></rect>
                        <g id="linkedin" transform="translate(6.000000, 6.000000)" fill="#E7E7E7" fill-rule="nonzero">
                            <path d="M4.62591638,5.72727273 L1.10135634,5.72727273 C0.944930736,5.72727273 0.818181818,5.85816826 0.818181818,6.01958074 L0.818181818,17.707692 C0.818181818,17.8691629 0.944930736,18 1.10135634,18 L4.62591638,18 C4.78234199,18 4.90909091,17.8691629 4.90909091,17.707692 L4.90909091,6.01958074 C4.90909091,5.85816826 4.78234199,5.72727273 4.62591638,5.72727273 Z" id="XMLID_802_"></path>
                            <path d="M2.45553207,0 C1.10153927,0 0,1.10087974 0,2.45403695 C0,3.8077924 1.10153927,4.90909091 2.45553207,4.90909091 C3.80844856,4.90909091 4.90909091,3.80773257 4.90909091,2.45403695 C4.9091507,1.10087974 3.80844856,0 2.45553207,0 Z" id="XMLID_803_"></path>
                            <path d="M13.5296566,5.72727273 C12.1249822,5.72727273 11.0866077,6.3409148 10.4567943,7.03816525 L10.4567943,6.29659779 C10.4567943,6.13891834 10.3310227,6.01105006 10.1758032,6.01105006 L6.82644563,6.01105006 C6.67122616,6.01105006 6.54545455,6.13891834 6.54545455,6.29659779 L6.54545455,17.7143952 C6.54545455,17.8721317 6.67122616,17.9999429 6.82644563,17.9999429 L10.3161863,17.9999429 C10.4714058,17.9999429 10.5971774,17.8721317 10.5971774,17.7143952 L10.5971774,12.0652331 C10.5971774,10.1616006 11.1059961,9.41997599 12.4118179,9.41997599 C13.8339699,9.41997599 13.9469846,10.6088825 13.9469846,12.1631759 L13.9469846,17.7144523 C13.9469846,17.8721888 14.0727562,18 14.2279757,18 L17.7190089,18 C17.8742284,18 18,17.8721888 18,17.7144523 L18,11.451591 C18,8.62095633 17.4688706,5.72727273 13.5296566,5.72727273 Z" id="XMLID_804_"></path>
                        </g>
                    </g>
                </g>
            </g>
        </g>
    </g>
</svg>