<?xml version="1.0" encoding="UTF-8"?>
<svg width="30px" height="30px" viewBox="0 0 30 30" version="1.1" xmlns="http://www.w3.org/2000/svg" xmlns:xlink="http://www.w3.org/1999/xlink">
    <!-- Generator: Sketch 53.2 (72643) - https://sketchapp.com -->
    <title>Medium_icon</title>
    <desc>Created with Sketch.</desc>
    <g id="Page-1" stroke="none" stroke-width="1" fill="none" fill-rule="evenodd">
        <g id="1440" transform="translate(-1030.000000, -35.000000)">
            <g id="Header">
                <g id="Right" transform="translate(1030.000000, 35.000000)">
                    <g id="Medium_icon">
                        <rect id="medium" fill="#000000" opacity="0.198172433" x="0" y="0" width="30" height="30"></rect>
                        <path d="M25,10.8096934 L23.9515955,10.8096934 C23.6786074,10.8096934 22.9642913,11.0733226 22.9642913,11.2977496 L22.9642913,19.4477405 C22.9642913,19.6727261 23.6786074,19.8571828 23.9515955,19.8571828 L25,19.8571828 L25,21.6666667 L18.2142521,21.6666667 L18.2142521,19.8571828 L19.5717315,19.8571828 L19.5717315,11.4125638 L19.3354979,11.4125638 L16.0689869,21.6666318 L13.5399206,21.6666318 L10.3156616,11.4125638 L10.0714566,11.4125638 L10.0714566,19.8571478 L11.428347,19.8571478 L11.428347,21.6666318 L6,21.6666667 L6,19.8571478 L6.75287687,19.8571478 C7.04844376,19.8571478 7.35692969,19.6727261 7.35692969,19.4477056 L7.35692969,11.2977496 C7.35692969,11.0732877 7.04848303,10.8096934 6.75287687,10.8096934 L6,10.8096934 L6,9 L13.0349791,9 L15.3319741,16.2380055 L15.3937813,16.2380055 L17.7134336,9 L25,9 L25,10.8096934 Z" id="medium" fill="#E7E7E7" fill-rule="nonzero"></path>
                    </g>
                </g>
            </g>
        </g>
    </g>
</svg>