<?xml version="1.0" encoding="UTF-8"?>
<svg width="30px" height="30px" viewBox="0 0 30 30" version="1.1" xmlns="http://www.w3.org/2000/svg" xmlns:xlink="http://www.w3.org/1999/xlink">
    <!-- Generator: Sketch 53.2 (72643) - https://sketchapp.com -->
    <title>Twitter_icon</title>
    <desc>Created with Sketch.</desc>
    <g id="Page-1" stroke="none" stroke-width="1" fill="none" fill-rule="evenodd">
        <g id="1440" transform="translate(-1250.000000, -35.000000)">
            <g id="Header">
                <g id="Right" transform="translate(1030.000000, 35.000000)">
                    <g id="Twitter_icon" transform="translate(220.000000, 0.000000)">
                        <rect id="twitter" fill="#000000" opacity="0.198172433" x="0" y="0" width="30" height="30"></rect>
                        <g id="twitter-logo-silhouette" transform="translate(6.000000, 9.000000)" fill="#E7E7E7" fill-rule="nonzero">
                            <path d="M18.833333,1.60436134 C18.1401606,1.87661478 17.3963966,2.06125395 16.6149351,2.14368556 C17.4128604,1.72015293 18.0236522,1.04837077 18.3131383,0.250349872 C17.5646659,0.642568307 16.7384906,0.927369245 15.8581847,1.08175803 C15.1532568,0.415185813 14.1505648,0 13.0384116,0 C10.9047638,0 9.17477164,1.5334407 9.17477164,3.42363951 C9.17477164,3.69171954 9.20889942,3.9535531 9.27481619,4.20393025 C6.06434314,4.06099788 3.21752018,2.69760306 1.31218077,0.625874679 C0.979119502,1.13077511 0.789647246,1.71908912 0.789647246,2.34709142 C0.789647246,3.53525769 1.47223359,4.58362847 2.50788396,5.19698292 C1.87471981,5.17821623 1.27922238,5.02382745 0.757889025,4.76720382 L0.757889025,4.80997443 C0.757889025,6.46859006 2.09010332,7.85285191 3.85656206,8.16790323 C3.53291747,8.24509763 3.19163969,8.28786823 2.83857567,8.28786823 C2.58909514,8.28786823 2.34783114,8.26596466 2.11127547,8.22423059 C2.60318939,9.58555234 4.02957051,10.5754954 5.71955717,10.6026362 C4.39792895,11.5206221 2.73148399,12.0661928 0.921480792,12.0661928 C0.609622445,12.0661928 0.302441665,12.0494992 0,12.0192488 C1.70998942,12.9925255 3.74008448,13.5599998 5.92198506,13.5599998 C13.0290565,13.5599998 16.9138993,8.34212252 16.9138993,3.81692176 L16.9009437,3.3735859 C17.6600021,2.89369864 18.3166772,2.29076406 18.833333,1.60436134 Z" id="Path"></path>
                        </g>
                    </g>
                </g>
            </g>
        </g>
    </g>
</svg>